<svg width="512" height="512" viewBox="0 0 512 512" fill="none" xmlns="http://www.w3.org/2000/svg">
<rect width="512" height="512" rx="64" fill="black"/>
<rect x="159.5" y="52.5" width="306" height="299" stroke="black"/>
<mask id="path-3-inside-1_127_369" fill="white">
<path d="M375 62C416.421 62 450 95.5786 450 137C450 178.421 416.421 212 375 212C333.579 212 300 178.421 300 137C300 95.5786 333.579 62 375 62Z"/>
</mask>
<path d="M375 62C416.421 62 450 95.5786 450 137C450 178.421 416.421 212 375 212C333.579 212 300 178.421 300 137C300 95.5786 333.579 62 375 62Z" fill="white"/>
<path d="M375 62V67C413.66 67 445 98.3401 445 137H450H455C455 92.8172 419.183 57 375 57V62ZM450 137H445C445 175.66 413.66 207 375 207V212V217C419.183 217 455 181.183 455 137H450ZM375 212V207C336.34 207 305 175.66 305 137H300H295C295 181.183 330.817 217 375 217V212ZM300 137H305C305 98.3401 336.34 67 375 67V62V57C330.817 57 295 92.8172 295 137H300Z" fill="black" mask="url(#path-3-inside-1_127_369)"/>
<mask id="path-5-inside-2_127_369" fill="white">
<path d="M309 52C391.843 52 459 119.157 459 202C459 284.843 391.843 352 309 352C226.157 352 159 284.843 159 202C159 119.157 226.157 52 309 52Z"/>
</mask>
<path d="M309 52C391.843 52 459 119.157 459 202C459 284.843 391.843 352 309 352C226.157 352 159 284.843 159 202C159 119.157 226.157 52 309 52Z" fill="white"/>
<path d="M309 52V57C389.081 57 454 121.919 454 202H459H464C464 116.396 394.604 47 309 47V52ZM459 202H454C454 282.081 389.081 347 309 347V352V357C394.604 357 464 287.604 464 202H459ZM309 352V347C228.919 347 164 282.081 164 202H159H154C154 287.604 223.396 357 309 357V352ZM159 202H164C164 121.919 228.919 57 309 57V52V47C223.396 47 154 116.396 154 202H159Z" fill="black" mask="url(#path-5-inside-2_127_369)"/>
<rect x="353.5" y="456.5" width="306" height="299" transform="rotate(-180 353.5 456.5)" stroke="black"/>
<mask id="path-8-inside-3_127_369" fill="white">
<path d="M138 447C96.5786 447 63 413.421 63 372C63 330.579 96.5786 297 138 297C179.421 297 213 330.579 213 372C213 413.421 179.421 447 138 447Z"/>
</mask>
<path d="M138 447C96.5786 447 63 413.421 63 372C63 330.579 96.5786 297 138 297C179.421 297 213 330.579 213 372C213 413.421 179.421 447 138 447Z" fill="white"/>
<path d="M138 447V442C99.3401 442 68 410.66 68 372H63H58C58 416.183 93.8172 452 138 452V447ZM63 372H68C68 333.34 99.3401 302 138 302V297V292C93.8172 292 58 327.817 58 372H63ZM138 297V302C176.66 302 208 333.34 208 372H213H218C218 327.817 182.183 292 138 292V297ZM213 372H208C208 410.66 176.66 442 138 442V447V452C182.183 452 218 416.183 218 372H213Z" fill="black" mask="url(#path-8-inside-3_127_369)"/>
<mask id="path-10-inside-4_127_369" fill="white">
<path d="M204 457C121.157 457 54 389.843 54 307C54 224.157 121.157 157 204 157C286.843 157 354 224.157 354 307C354 389.843 286.843 457 204 457Z"/>
</mask>
<path d="M204 457C121.157 457 54 389.843 54 307C54 224.157 121.157 157 204 157C286.843 157 354 224.157 354 307C354 389.843 286.843 457 204 457Z" fill="white"/>
<path d="M204 457V452C123.919 452 59 387.081 59 307H54H49C49 392.604 118.396 462 204 462V457ZM54 307H59C59 226.919 123.919 162 204 162V157V152C118.396 152 49 221.396 49 307H54ZM204 157V162C284.081 162 349 226.919 349 307H354H359C359 221.396 289.604 152 204 152V157ZM354 307H349C349 387.081 284.081 452 204 452V457V462C289.604 462 359 392.604 359 307H354Z" fill="black" mask="url(#path-10-inside-4_127_369)"/>
<mask id="path-12-inside-5_127_369" fill="white">
<path d="M256 53C366.457 53 456 142.543 456 253C456 363.457 366.457 453 256 453C145.543 453 56 363.457 56 253C56 142.543 145.543 53 256 53Z"/>
</mask>
<path d="M256 53C366.457 53 456 142.543 456 253C456 363.457 366.457 453 256 453C145.543 453 56 363.457 56 253C56 142.543 145.543 53 256 53Z" fill="white"/>
<path d="M256 53V58C363.696 58 451 145.304 451 253H456H461C461 139.782 369.218 48 256 48V53ZM456 253H451C451 360.696 363.696 448 256 448V453V458C369.218 458 461 366.218 461 253H456ZM256 453V448C148.304 448 61 360.696 61 253H56H51C51 366.218 142.782 458 256 458V453ZM56 253H61C61 145.304 148.304 58 256 58V53V48C142.782 48 51 139.782 51 253H56Z" fill="black" mask="url(#path-12-inside-5_127_369)"/>
<circle cx="256" cy="253" r="150" fill="black"/>
<circle cx="199" cy="198" r="25" fill="white"/>
<path d="M331 192C331 198.63 328.366 204.989 323.678 209.678C318.989 214.366 312.63 217 306 217C299.37 217 293.011 214.366 288.322 209.678C283.634 204.989 281 198.63 281 192L306 192H331Z" fill="white"/>
<path d="M320.5 326.792L316.569 333.921C315.825 335.269 314.98 336.559 314.04 337.779C310.9 341.856 306.774 345.066 302.05 347.107L298.311 348.724C292.417 351.271 286.057 352.557 279.637 352.501L275.972 352.469L262 352.347" stroke="white" stroke-width="10" stroke-linecap="round"/>
</svg>
